<svg viewBox="0 0 291.723 335.271" height="435.594" width="379.015"><circle fill="#ffd05c" transform="translate(20 20) scale(5.292)" r="25" cy="25" cx="25"></circle><path fill="#282828" d="M171.306 175.415V94.108l-6.312-1.767c-2.273-.758-3.535-3.283-3.535-5.555V63.05c0-2.02 1.515-5.05 4.04-5.05h45.45c2.02 0 4.04 2.778 4.04 4.545v25.25c0 2.02-1.514 3.788-3.534 4.546l-6.06 1.767-.253 87.114c-.252 32.32-13.383 47.724-46.208 47.724-31.31 0-47.724-9.848-47.724-42.926v-26.766c0-2.02 1.768-4.797 4.04-4.797h24.746c2.525 0 4.04 2.777 4.04 4.797l.252 24.24c0 4.798 2.526 7.828 7.576 7.828l15.15-11.615v3.283l-11.615 8.585h4.292c.505 0 1.01 0 1.515-.253l5.808-4.292c0 .757-.253 2.777-.505 3.282-.253.253-.505.505-.758.505 3.788 0 5.05-5.302 5.303-8.08zm-31.058-93.932 6.818-5.303h4.04l-10.858 8.333v-3.03zm0 6.818 16.16-12.12h1.01v2.524l-17.17 12.626V88.3zm0 7.07 17.17-12.878v2.777l-17.17 12.878v-2.777zm0 9.847v-3.03l17.17-12.877v3.03zm1.01 3.283 17.423-13.383c.758.758 1.515 1.01 2.273 1.515l-17.928 13.635c-.758 0-1.768-1.262-1.768-1.767zm8.08 3.787-2.777-.757 18.18-13.635.253-.253 2.272.758c0 .505 0 .505-.252.757l-17.423 12.878zm.506 6.566v-3.03l17.422-12.878v3.03zm0 4.04 17.422-12.878v3.03l-17.422 12.878v-3.03zm0 9.847v-2.777l17.17-12.878h.252v3.03l-16.917 12.625h-.505zm0 7.07v-3.03l17.422-12.877v3.03zm0 4.04 17.422-12.877v3.03l-17.422 12.878v-3.03zm0 10.1v-3.03l17.17-12.877h.252v3.03l-16.917 12.625c-.253 0-.253.253-.505.253zm0 6.818v-3.03l17.422-12.877v3.03zm0 4.04 17.422-12.877v3.03l-17.422 12.877v-3.03zm0 9.848v-2.777l17.422-12.878v2.777zm0 4.04 17.422-12.878v3.03l-17.422 12.878v-3.03zm-53.026-5.807L90 177.687c0-2.02 1.515-4.797 3.788-4.797h3.03zM90 181.727l12.12-8.837h4.04L90 184.757v-3.03zm59.844 7.07v-3.03l17.17-12.877h.252v2.777zM90 191.827v-3.03l16.918-12.625.252-.252v3.03zm0 7.07v-3.03l17.17-12.877v3.03zm0 3.788 17.17-12.878c0 1.01.253 2.02.253 3.03L90 205.715V202.685zm.505 6.818 16.918-12.878h.252c0 .252.253 2.273.253 2.778L90.505 212.28c-.252-.757-.252-1.767-.252-2.525 0-.252 0-.252.252-.252zm.758 6.312 17.17-12.877.505 2.525-17.17 12.877h-.253l-.505-2.272c0-.253 0-.253.253-.253zm1.262 5.808 17.423-12.878.757 2.273c0 .252-.252.252-.252.252L93.03 224.148s-.505-2.02-.505-2.525zm1.768 5.808 17.675-13.13 1.01 2.02v.252l-17.675 13.13c0-.252-.253-.757-.253-1.01-.252-.252-.757-1.262-.757-1.262zm2.777 4.797 17.675-13.13 1.263 2.02-17.423 13.13c-.757-.252-1.767-1.767-1.767-1.767zm3.283 4.545 17.675-13.13.253-.253 1.767 1.768-17.928 13.383zm4.545 3.788 17.928-13.635 2.272 1.515-17.928 13.382c-.757-.252-2.272-1.01-2.272-1.262zm5.302 3.03v-.253l17.928-13.382h.253l2.777 1.01-18.433 13.635-.505-.253c-.252 0-1.767-.757-2.02-.757zm42.926 2.525 19.443-14.393 4.04-1.01-1.01 1.768-16.413 12.372c-.252 0-5.05 1.263-5.807 1.263h-.253zm-36.36-.505 18.432-13.888 3.283.505-18.433 13.888c-.757 0-3.03-.253-3.283-.505zm7.827 1.01 18.18-13.635c.253-.253.253-.253.505-.253 1.01.253 3.283.253 3.283.253l.253.252-18.686 13.888c-1.515 0-2.525 0-3.535-.505zm41.158-13.888-18.685 14.14c-.252.253-.252.253-.505.253h-4.04l18.685-13.888c1.01-.252 3.788-.252 4.545-.505zm-32.573 14.393 18.686-13.888h4.04l-18.686 14.14z"></path></svg>